<svg xmlns="http://www.w3.org/2000/svg" xmlns:xlink="http://www.w3.org/1999/xlink" viewBox="0 0 750 500"><defs><style>.cls-1,.cls-18,.cls-19,.cls-20,.cls-21,.cls-22,.cls-23,.cls-24,.cls-25,.cls-26,.cls-27,.cls-28,.cls-29,.cls-30,.cls-31,.cls-32,.cls-33,.cls-34,.cls-35,.cls-36,.cls-37,.cls-38,.cls-39,.cls-40,.cls-41,.cls-42,.cls-43,.cls-44,.cls-45,.cls-46,.cls-47,.cls-48,.cls-49,.cls-50,.cls-51,.cls-52,.cls-53,.cls-54,.cls-55,.cls-56,.cls-57,.cls-58,.cls-59,.cls-60,.cls-61,.cls-62,.cls-63,.cls-64,.cls-65,.cls-66,.cls-67,.cls-68,.cls-69,.cls-70,.cls-71,.cls-72,.cls-73,.cls-74,.cls-75,.cls-76{fill:none;}.cls-2{isolation:isolate;}.cls-3{fill:url(#linear-gradient);}.cls-4{clip-path:url(#clip-path);}.cls-5,.cls-6{opacity:0.8;}.cls-5{fill:url(#linear-gradient-2);}.cls-7{fill:url(#linear-gradient-3);}.cls-8{fill:url(#linear-gradient-4);}.cls-9{fill:url(#linear-gradient-5);}.cls-10{fill:url(#linear-gradient-6);}.cls-11{fill:url(#linear-gradient-7);}.cls-12{fill:url(#linear-gradient-8);}.cls-13{fill:url(#linear-gradient-9);}.cls-14{fill:url(#linear-gradient-10);}.cls-15{fill:url(#linear-gradient-11);}.cls-16{fill:url(#linear-gradient-12);}.cls-17{opacity:0.5;mix-blend-mode:overlay;}.cls-18,.cls-19,.cls-20,.cls-21,.cls-22,.cls-23,.cls-24,.cls-25,.cls-26,.cls-27,.cls-28,.cls-29,.cls-30,.cls-31,.cls-32,.cls-33,.cls-34,.cls-35,.cls-36,.cls-37,.cls-38,.cls-39,.cls-40,.cls-41,.cls-42,.cls-43,.cls-44,.cls-45,.cls-46,.cls-47,.cls-48,.cls-49,.cls-50,.cls-51,.cls-52,.cls-53,.cls-54,.cls-55,.cls-56,.cls-57,.cls-58,.cls-59,.cls-60,.cls-61,.cls-62,.cls-63,.cls-64,.cls-65,.cls-66,.cls-67,.cls-68,.cls-69,.cls-70,.cls-71,.cls-72,.cls-73,.cls-74,.cls-75,.cls-76{stroke:#fff;stroke-miterlimit:10;}.cls-18{stroke-width:0.5px;}.cls-19{stroke-width:0.52px;}.cls-20{stroke-width:0.54px;}.cls-21{stroke-width:0.55px;}.cls-22{stroke-width:0.57px;}.cls-23{stroke-width:0.59px;}.cls-24{stroke-width:0.61px;}.cls-25{stroke-width:0.63px;}.cls-26{stroke-width:0.64px;}.cls-27{stroke-width:0.66px;}.cls-28{stroke-width:0.68px;}.cls-29{stroke-width:0.7px;}.cls-30{stroke-width:0.71px;}.cls-31{stroke-width:0.73px;}.cls-32{stroke-width:0.75px;}.cls-33{stroke-width:0.77px;}.cls-34{stroke-width:0.79px;}.cls-35{stroke-width:0.8px;}.cls-36{stroke-width:0.82px;}.cls-37{stroke-width:0.84px;}.cls-38{stroke-width:0.86px;}.cls-39{stroke-width:0.88px;}.cls-40{stroke-width:0.89px;}.cls-41{stroke-width:0.91px;}.cls-42{stroke-width:0.93px;}.cls-43{stroke-width:0.95px;}.cls-44{stroke-width:0.96px;}.cls-45{stroke-width:0.98px;}.cls-47{stroke-width:0.98px;}.cls-48{stroke-width:0.97px;}.cls-49{stroke-width:0.95px;}.cls-50{stroke-width:0.94px;}.cls-51{stroke-width:0.92px;}.cls-52{stroke-width:0.9px;}.cls-53{stroke-width:0.89px;}.cls-54{stroke-width:0.87px;}.cls-55{stroke-width:0.85px;}.cls-56{stroke-width:0.84px;}.cls-57{stroke-width:0.82px;}.cls-58{stroke-width:0.81px;}.cls-59{stroke-width:0.79px;}.cls-60{stroke-width:0.77px;}.cls-61{stroke-width:0.76px;}.cls-62{stroke-width:0.74px;}.cls-63{stroke-width:0.73px;}.cls-64{stroke-width:0.71px;}.cls-65{stroke-width:0.69px;}.cls-66{stroke-width:0.68px;}.cls-67{stroke-width:0.66px;}.cls-68{stroke-width:0.65px;}.cls-69{stroke-width:0.63px;}.cls-70{stroke-width:0.61px;}.cls-71{stroke-width:0.6px;}.cls-72{stroke-width:0.58px;}.cls-73{stroke-width:0.56px;}.cls-74{stroke-width:0.55px;}.cls-75{stroke-width:0.53px;}.cls-76{stroke-width:0.52px;}</style><linearGradient id="linear-gradient" x1="654.72" y1="-34.49" x2="184.72" y2="443.51" gradientUnits="userSpaceOnUse"><stop offset="0" stop-color="#ff7281"/><stop offset="0.31" stop-color="#ff4081"/><stop offset="1" stop-color="#880e4f"/></linearGradient><clipPath id="clip-path"><rect class="cls-1" width="750" height="500"/></clipPath><linearGradient id="linear-gradient-2" x1="395.1" y1="207.49" x2="-29.9" y2="143.49" xlink:href="#linear-gradient"/><linearGradient id="linear-gradient-3" x1="487.51" y1="365.98" x2="675.51" y2="-2.02" xlink:href="#linear-gradient"/><linearGradient id="linear-gradient-4" x1="272.47" y1="155.77" x2="95.49" y2="518.83" xlink:href="#linear-gradient"/><linearGradient id="linear-gradient-5" x1="255.26" y1="287.48" x2="231.26" y2="1.48" xlink:href="#linear-gradient"/><linearGradient id="linear-gradient-6" x1="250.4" y1="162.32" x2="207.85" y2="-60.24" xlink:href="#linear-gradient"/><linearGradient id="linear-gradient-7" x1="390.72" y1="308.82" x2="377.22" y2="574.31" xlink:href="#linear-gradient"/><linearGradient id="linear-gradient-8" x1="485.98" y1="359.56" x2="560.98" y2="572.56" xlink:href="#linear-gradient"/><linearGradient id="linear-gradient-9" x1="617.86" y1="162.75" x2="829.87" y2="-44.25" gradientUnits="userSpaceOnUse"><stop offset="0" stop-color="#ff8d99"/><stop offset="1" stop-color="#ff4081"/></linearGradient><linearGradient id="linear-gradient-10" x1="641.36" y1="359.54" x2="762.36" y2="543.54" xlink:href="#linear-gradient-9"/><linearGradient id="linear-gradient-11" x1="109.69" y1="403.28" x2="-73.31" y2="569.28" xlink:href="#linear-gradient-9"/><linearGradient id="linear-gradient-12" x1="167.11" y1="75.37" x2="79.94" y2="-25.33" xlink:href="#linear-gradient-9"/></defs><title>2776341</title><g class="cls-2"><g id="BACKGROUND"><rect class="cls-3" width="750" height="500"/><g class="cls-4"><path class="cls-5" d="M356.13-24.49C334.53,5,304.37,50,359.45,120s51.9,131-44.08,144S203.53,390,117.53,345s-158,23-158,23l-3-392.49Z"/><g class="cls-6"><path class="cls-7" d="M478.53-45c-17.33,27.39-66.14,81.74-32.41,159.32s-43,92.27-40.92,172.77C407.33,370.89,501,404.91,561.74,314c55.46-83.06,96.46-110.78,134.12-98.62,35.82,11.55,64.67,22.59,90.69,4.29L777.07-45Z"/></g><g class="cls-6"><path class="cls-8" d="M-43.1,262.09C34.53,339,77.16,247.89,144.1,278.22,249.59,326,313.21,147.68,405.16,170c28.86,7,46.19,29,49.72,48.91,5.11,28.76-14.43,65.48-53.78,96.17C334.53,367,343.93,416.9,359.45,456.33c22.89,58.17-23.64,93.34-23.64,93.34H-49.39Z"/></g><g class="cls-6"><path class="cls-9" d="M537.4-16.63C549,28.54,525,130.11,418.53,107.17c-89.31-19.24-117.73,11.71-158,92.22s-129.36,95.76-200.55-12C-2.27,93.28-64.47,156.79-64.47,156.79v-215Z"/></g><g class="cls-6"><path class="cls-10" d="M506.53-30s28.07,62.7-28,86.71-92.49,1.12-142.76-20.32S244.66,10.71,216.1,84.09,148.25,187.45,91.66,125.63C40.53,69.76-13.47,59.89-56.47,99.36V-30Z"/></g><g class="cls-6"><path class="cls-11" d="M786.55,243c-10.36,21.15-80,79-143,26s-138.87-91.24-175.93-2.12-97.07,143.39-174.07,90.26-129,50.09-193,21S44.47,189-9.5,185V519H786.55Z"/></g><g class="cls-6"><path class="cls-12" d="M777.07,264S733.2,379.67,621.86,341c-84-29.17-99.73,47-126,73.66s-73,40.94-131.14,14.83-154-4.42-150.09,81.59H777.07Z"/></g><path class="cls-13" d="M577.58-24.49C592.53-4,579.27,41.89,558.53,69s-20.15,67.41,5.42,85.2,60.77,4.31,88.67-7.94,64.91-16.69,93.91,16.53,93,10.1,93,10.1l4-197.38Z"/><path class="cls-14" d="M769.46,306s-19.34,77.71-89.64,74.85-103.63,35.81-84,75.48-.39,81.75-.39,81.75h181.6Z"/><path class="cls-15" d="M-22.47,306c9,27,0,87,84,106s124.4,60.33,126.2,137.67H-29.89Z"/><path class="cls-16" d="M99.16-59c-18,39-28.53,81.49-12,122.75s63,43.58,78.92,24.71c14.19-16.82,9.76-46.46-24.07-69C114.33,1,112.19-34,116.89-59S99.16-59,99.16-59Z"/><g class="cls-17"><path class="cls-18" d="M569.53-20s107,63,36.73,180c-54.07,90,68.46,132.82,139.49,87,58.49-37.74,217.75-34.84,217.75-34.84"/><path class="cls-19" d="M962.42,217.16c-2.52-.37-159.29-5.9-216.07,27.16-69.22,40.29-194.75,2.15-145-85.71,65.14-114-38.72-176.82-38-179.13"/><path class="cls-20" d="M961.34,222.15c-5-.75-159.29-8.92-214.39,19.48-67.37,34.73-196.24,1.12-150.4-84.42C656.16,46,555.84-16.43,557.34-21"/><path class="cls-21" d="M960.26,227.15c-7.56-1.13-159.25-12-212.71,11.79-65.5,29.14-197.59.18-155.85-83.13C646,47.47,549-14.64,551.24-21.55"/><path class="cls-22" d="M959.17,232.14c-10.07-1.5-159.17-15.06-211,4.12-63.58,23.5-198.95-.75-161.31-81.85C635.78,49,542.14-12.86,545.14-22.07"/><path class="cls-23" d="M958.09,237.14c-12.58-1.88-159-18.16-209.34-3.57C687.15,251.43,548.44,231.91,582,153c43.58-102.5-46.69-164.08-42.94-175.6"/><path class="cls-24" d="M957,242.13c-15.1-2.25-158.85-21.26-207.66-11.25-59.54,12.22-201.67-2.56-172.21-79.27C615.37,52.06,528.45-9.29,533-23.11"/><path class="cls-25" d="M955.93,247.13c-17.62-2.63-158.57-24.37-206-18.94-57.39,6.58-203-3.45-177.66-78C605.16,53.62,521.61-7.5,526.86-23.63"/><path class="cls-26" d="M954.85,252.12c-20.14-3-158.22-27.44-204.31-26.61-55.16,1-204.39-4.32-183.11-76.7C595,55.21,514.76-5.72,520.76-24.14"/><path class="cls-27" d="M953.77,257.11c-22.66-3.37-157.79-30.45-202.63-34.29-52.84-4.53-205.76-5.17-188.56-75.41C584.75,56.82,507.91-3.93,514.66-24.66"/><path class="cls-28" d="M952.69,262.11c-25.18-3.75-157.29-33.39-201-42-50.45-9.92-207.12-6-194-74.12C574.55,58.47,501.07-2.14,508.57-25.18"/><path class="cls-29" d="M951.61,267.1c-27.69-4.12-156.76-36.21-199.27-49.66-48-15.19-208.47-6.78-199.47-72.83,11.5-84.47-58.65-145-50.4-170.31"/><path class="cls-30" d="M950.53,272.1c-30.21-4.5-156.24-38.93-197.59-57.34-45.62-20.33-209.8-7.56-204.92-71.54,6.19-81.37-60.65-141.79-51.65-169.43"/><path class="cls-31" d="M949.45,277.09c-32.73-4.88-155.77-41.52-195.91-65-43.26-25.33-211.11-8.3-210.38-70.25.93-78.23-62.63-138.61-52.88-168.55"/><path class="cls-32" d="M948.37,282.08c-35.25-5.25-155.37-44-194.23-72.7-41-30.24-212.39-9-215.83-69C534,65.36,473.68,5,484.18-27.25"/><path class="cls-33" d="M947.29,287.08c-37.77-5.63-155.08-46.49-192.55-80.39C715.93,171.58,541.1,197,533.45,139,524,67.15,466.83,6.78,478.08-27.77"/><path class="cls-34" d="M946.21,292.07c-40.29-6-154.88-48.91-190.87-88.06-36.73-40-214.83-10.42-226.74-66.39C514,69,460,8.57,472-28.29"/><path class="cls-35" d="M945.13,297.07c-42.8-6.38-154.76-51.34-189.19-95.75-34.74-44.81-216-11.11-232.19-65.1-19.66-65.47-70.61-125.86-57.86-165"/><path class="cls-36" d="M944.05,302.06c-45.32-6.75-154.73-53.78-187.51-103.43s-217.07-11.81-237.65-63.81C494.25,72.53,446.3,12.14,459.79-29.32"/><path class="cls-37" d="M943,307.05c-47.84-7.12-154.75-56.25-185.83-111.11-31-54.61-218.11-12.55-243.1-62.52C484.47,74.28,439.45,13.93,453.7-29.84"/><path class="cls-38" d="M941.88,312.05c-50.35-7.5-154.8-58.76-184.14-118.79C728.61,133.68,538.63,179.92,509.19,132,474.73,76,432.6,15.71,447.6-30.36"/><path class="cls-39" d="M940.8,317c-52.87-7.87-154.88-61.3-182.47-126.47C731,126,538.27,176.4,504.33,130.62c-39.3-53-78.57-113.12-62.82-161.5"/><path class="cls-40" d="M939.72,322c-55.39-8.25-155-63.88-180.79-134.16-25.55-69.61-221-15.06-259.45-58.66-44.13-50-80.57-109.94-64.07-160.61"/><path class="cls-41" d="M938.64,327c-57.9-8.62-155.11-66.48-179.11-141.84-23.78-74.68-221.95-16-264.9-57.37-49-47.14-82.57-106.75-65.32-159.73"/><path class="cls-42" d="M937.56,332c-60.42-9-155.23-69.11-177.43-149.51-22-79.79-222.9-17-270.36-56.09C436,82.12,405.22,22.85,423.22-32.43"/><path class="cls-43" d="M936.48,337c-62.94-9.38-155.35-71.77-175.75-157.2C740.46,94.91,536.86,161.75,484.92,125c-58.69-41.5-86.55-100.38-67.8-158"/><path class="cls-44" d="M935.4,342c-65.46-9.75-155.47-74.44-174.07-164.88-18.51-90-224.87-19.15-281.26-53.51C416.47,84.87,391.52,26.43,411-33.46"/><path class="cls-45" d="M934.32,347c-68-10.13-155.59-77.14-172.39-172.57C745.17,79.22,536,154.19,475.21,122.22c-68.54-36-90.53-94-70.28-156.2"/><path class="cls-46" d="M933.24,352c-70.5-10.5-155.71-79.84-170.71-180.24s-227-21.39-292.17-50.94C396.83,87.5,377.83,30,398.83-34.5"/><path class="cls-46" d="M-84.16,299.35s198.55-94.19,277.94,61.25S325.25,549.53,564.2,462c120.58-44.16,222.46,61.38,259.33,87.67"/><path class="cls-47" d="M823.4,549.84c-37.83-25.66-137.29-125.74-258.11-83.53-236,82.44-284.7,46.26-364.9-104.77S-74.9,307.66-83,305.92"/><path class="cls-48" d="M823.27,550c-38.79-25-135.8-119.64-256.9-79.4C333.4,548,288,509.09,207,362.47s-272.63-46.5-288.85-50"/><path class="cls-49" d="M823.14,550.18c-39.75-24.4-134.29-113.52-255.69-75.27-229.89,72.45-272,30.7-353.84-111.5s-270-39.13-294.31-44.35"/><path class="cls-50" d="M823,550.35C782.3,526.59,690.26,443,568.54,479.22c-226.78,67.54-265.7,22.92-348.33-114.88s-267.3-31.75-299.75-38.72"/><path class="cls-51" d="M822.88,550.53c-41.67-23.14-131.19-101.25-253.26-67C346,546.23,310.25,498.66,226.82,365.28S-37.82,340.9-78.39,332.19"/><path class="cls-52" d="M822.76,550.7c-42.64-22.51-129.6-95.07-252.06-62.88-220.37,57.95-253,7.36-337.27-121.61s-262-17-310.67-27.45"/><path class="cls-53" d="M822.63,550.87C779,529,694.64,462,571.79,492.13c-217.11,53.26-246.71-.43-331.76-125s-259.32-9.62-316.11-21.82"/><path class="cls-54" d="M822.5,551c-44.56-21.25-126.35-82.66-249.63-54.61-213.8,48.65-240.37-8.21-326.23-128.35S-10,365.84-74.93,351.9"/><path class="cls-55" d="M822.37,551.22C776.85,530.59,697.69,474.79,574,500.73c-210.45,44.12-234-16-320.71-131.71s-254,5.13-327-10.55"/><path class="cls-56" d="M822.24,551.39c-46.48-20-123-70.15-247.2-46.35C368,544.7,347.33,481.26,259.85,370S8.52,382.46-72.62,365"/><path class="cls-57" d="M822.11,551.56c-47.44-19.37-121.29-63.83-246-42.22-203.62,35.3-221.38-31.55-309.66-138.45s-248.68,19.88-337.92.72"/><path class="cls-58" d="M822,551.73c-48.4-18.74-119.57-57.48-244.77-38.09-200.16,31-215-39.33-304.14-141.82s-246,27.26-343.38,6.36"/><path class="cls-59" d="M821.85,551.9C772.49,533.79,704,500.81,578.29,518c-196.67,26.81-208.72-47.12-298.61-145.19s-243.36,34.63-348.83,12"/><path class="cls-60" d="M821.72,552.08c-50.32-17.48-116.06-44.67-242.35-29.83C386.22,545,377,467.35,286.28,373.69S45.59,415.71-68,391.32"/><path class="cls-61" d="M821.59,552.25c-51.28-16.85-114.29-38.19-241.13-25.7C390.84,545.23,384.4,463.87,292.89,374.62S54.86,424-66.84,397.89"/><path class="cls-62" d="M821.47,552.42C769.22,536.2,709,520.77,581.54,530.86c-186.06,14.73-189.72-70.47-282-155.3S64.12,432.33-65.69,404.46"/><path class="cls-63" d="M821.34,552.59C768.13,537,710.61,527.53,582.63,535.16,400.13,546,399.23,456.92,306.1,376.49S73.39,440.64-64.53,411"/><path class="cls-64" d="M821.21,552.76c-54.17-15-108.93-18.41-237.5-13.3-178.93,7.12-177.06-86-271-162S82.66,449-63.38,417.6"/><path class="cls-65" d="M821.08,552.94C766,538.6,714,541.23,584.79,543.77,409.44,547.21,414.06,450,319.32,378.36S91.93,457.26-62.23,424.17"/><path class="cls-66" d="M821,553.11c-56.09-13.71-105.34-4.92-235.07-5-171.79-.15-164.4-101.59-259.95-168.77s-224.73,86.27-387,51.44"/><path class="cls-67" d="M820.82,553.28c-57.05-13.08-103.55,1.93-233.86-.91C418.74,548.71,428.89,443,332.53,380.23S110.46,473.89-59.92,437.31"/><path class="cls-68" d="M820.69,553.45c-58-12.45-101.77,8.86-232.65,3.23-164.67-7.09-151.73-117.16-248.9-175.51s-219.41,101-397.9,62.71"/><path class="cls-69" d="M820.56,553.62c-59-11.82-100,15.87-231.43,7.36C428,550.55,443.72,436.05,345.75,382.1S129,490.51-57.61,450.45"/><path class="cls-70" d="M820.43,553.8c-59.93-11.2-98.27,23-230.22,11.48C432.56,551.58,451.14,432.57,352.35,383S138.27,498.82-56.45,457"/><path class="cls-71" d="M820.3,554c-60.89-10.56-96.56,30.13-229,15.62C437.1,552.69,458.55,429.09,359,384S147.54,507.13-55.3,463.58"/><path class="cls-72" d="M820.18,554.14c-61.86-9.93-94.89,37.4-227.8,19.75-150.77-20-126.41-148.28-226.81-189S156.8,515.44-54.14,470.15"/><path class="cls-73" d="M820.05,554.31c-62.82-9.3-93.25,44.76-226.59,23.88C446.07,555.11,473.38,422.13,372.17,385.84S166.07,523.75-53,476.72"/><path class="cls-74" d="M819.92,554.48c-63.78-8.67-91.66,52.22-225.37,28C450.47,556.42,480.79,418.65,378.78,386.78S175.34,532.07-51.83,483.29"/><path class="cls-75" d="M819.79,554.66c-64.74-8-90.12,59.76-224.16,32.14-140.81-29-107.42-171.63-210.24-199.09S184.61,540.38-50.68,489.86"/><path class="cls-76" d="M819.66,554.83C754,547.41,731,622.25,596.71,591.1,459.09,559.19,495.62,411.7,392,388.65s-198.12,160-441.52,107.78"/><path class="cls-18" d="M819.53,555c-66.66-6.79-87.23,75.16-221.73,40.41S503,408.22,398.6,389.58,203.14,557-48.37,503"/></g></g></g></g></svg>