<svg id="Layer_1" data-name="Layer 1" xmlns="http://www.w3.org/2000/svg" xmlns:xlink="http://www.w3.org/1999/xlink" viewBox="0 0 1417.32 1417.32"><defs><style>.cls-1{opacity:0.2;fill:url(#linear-gradient);}.cls-2{fill:#e052a6;}</style><linearGradient id="linear-gradient" x1="60.21" y1="654.28" x2="900.07" y2="654.28" gradientUnits="userSpaceOnUse"><stop offset="0" stop-color="#350996"/><stop offset="1" stop-color="#06042c"/></linearGradient></defs><title>shape-1</title><circle class="cls-1" cx="480.14" cy="654.28" r="419.93"/><path class="cls-2" d="M626.83,551.13a394.06,394.06,0,0,0-66,259.82L843.26,393A394.1,394.1,0,0,0,626.83,551.13Z"/><path class="cls-2" d="M1293.64,568.36l-402,595A588.33,588.33,0,0,0,1012.3,1183l344.58-510A588.21,588.21,0,0,0,1293.64,568.36Z"/><path class="cls-2" d="M1076.1,396l-425.56,629.9a394.21,394.21,0,0,0,59.92,58.08l441.89-654.07A394.93,394.93,0,0,0,1076.1,396Z"/><path class="cls-2" d="M920.94,378.42l-344.59,510a396,396,0,0,0,39.4,88.47l402-595A396.1,396.1,0,0,0,920.94,378.42Z"/><path class="cls-2" d="M1282.56,994.15a394,394,0,0,0,66-259.82l-282.39,418A394,394,0,0,0,1282.56,994.15Z"/><path class="cls-2" d="M1198.93,461.34,757,1115.41a394.1,394.1,0,0,0,76.25,33.92l425.56-629.9A394.27,394.27,0,0,0,1198.93,461.34Z"/></svg>