<svg id="Layer_1" data-name="Layer 1" xmlns="http://www.w3.org/2000/svg" viewBox="0 0 1417.32 1417.32"><defs><style>.cls-1{fill:#fff;}</style></defs><title>shape-plus</title><polygon class="cls-1" points="923.73 949.43 799.98 924.92 770.49 1073.87 621.53 1044.37 597.02 1168.12 745.98 1197.62 719.63 1330.66 843.38 1355.17 869.73 1222.13 1002.77 1248.48 1027.28 1124.73 894.23 1098.38 923.73 949.43"/><polygon class="cls-1" points="455.73 580.92 368.34 563.61 347.51 668.8 242.32 647.97 225.01 735.36 330.2 756.19 311.6 850.14 398.99 867.45 417.59 773.5 511.55 792.11 528.85 704.72 434.9 686.11 455.73 580.92"/><polygon class="cls-1" points="680.48 72.52 607.96 58.16 590.67 145.44 503.39 128.16 489.03 200.67 576.31 217.96 560.87 295.92 633.39 310.28 648.83 232.32 726.79 247.76 741.15 175.24 663.19 159.8 680.48 72.52"/></svg>