<svg id="Layer_1" data-name="Layer 1" xmlns="http://www.w3.org/2000/svg" viewBox="0 0 1417.32 1417.32"><defs><style>.cls-1{fill:#fff;}</style></defs><title>shape-4-01</title><polygon class="cls-1" points="191.98 1011.34 55.49 905.37 74 881.53 191.98 973.13 319.21 874.34 446.46 973.13 573.68 874.34 700.94 973.13 828.2 874.34 955.49 973.13 1073.51 881.53 1092.02 905.37 955.49 1011.34 828.2 912.55 700.94 1011.34 573.68 912.55 446.46 1011.34 319.21 912.55 191.98 1011.34"/><polygon class="cls-1" points="462.85 1264.41 326.35 1158.43 344.86 1134.59 462.85 1226.2 590.07 1127.41 717.33 1226.2 844.54 1127.41 971.8 1226.2 1099.06 1127.41 1226.35 1226.2 1344.37 1134.59 1362.88 1158.43 1226.35 1264.41 1099.06 1165.62 971.8 1264.41 844.54 1165.62 717.33 1264.41 590.07 1165.62 462.85 1264.41"/><rect class="cls-1" x="1146.54" y="116.35" width="40.2" height="346.71" transform="translate(136.87 909.83) rotate(-45)"/><rect class="cls-1" x="1146.54" y="116.35" width="40.2" height="346.71" transform="translate(1786.73 1319.5) rotate(-135)"/></svg>