<svg id="Layer_1" data-name="Layer 1" xmlns="http://www.w3.org/2000/svg" viewBox="0 0 1038 1132.27"><defs><style>.cls-1{fill:#f6f6f6;}</style></defs><title>Untitled-2</title><path class="cls-1" d="M1038,904.84v510.78H0V1079.83C100.25,1002.38,248.69,961.44,389.78,977c85.06,9.36,164.7,37,248.44,51.69s178.93,14.55,246.76-25.93c36-21.5,60.85-52.34,95.67-74.94A164.46,164.46,0,0,1,1038,904.84Z"/><path class="cls-1" d="M1038-185.52V83.11c-80.49,16-163.14-19.82-246.4-27.61C675.93,44.76,563.28,89,469.78,142.49,356.16,207.33,167.48,347.85,0,336.92V-178.21c3.61-2.68,7.23-5.09,10.84-7.31Z"/></svg>