<svg id="BACKGROUND" xmlns="http://www.w3.org/2000/svg" xmlns:xlink="http://www.w3.org/1999/xlink" viewBox="0 0 750 500"><defs><style>.cls-1{fill:#06042c;}.cls-2{clip-path:url(#clip-path);}.cls-18,.cls-19,.cls-3,.cls-6,.cls-9{opacity:0.2;}.cls-3{fill:url(#linear-gradient);}.cls-4{fill:#00c1b7;}.cls-5{fill:#e052a6;}.cls-6{fill:url(#linear-gradient-2);}.cls-7{fill:#ffe466;}.cls-11,.cls-12,.cls-13,.cls-14,.cls-15,.cls-16,.cls-17,.cls-20,.cls-21,.cls-8{fill:none;stroke-width:2px;}.cls-12,.cls-13,.cls-14,.cls-8{stroke:#b162a6;}.cls-12,.cls-13,.cls-14,.cls-15,.cls-16,.cls-17,.cls-20,.cls-21,.cls-8{stroke-linecap:round;stroke-linejoin:round;}.cls-15,.cls-8{stroke-dasharray:7;}.cls-9{fill:url(#linear-gradient-3);}.cls-10{fill:#f9fbfc;}.cls-11,.cls-16,.cls-17{stroke:#f9fbfc;}.cls-11{stroke-miterlimit:10;}.cls-13{stroke-dasharray:7 7;}.cls-14,.cls-16,.cls-20{stroke-dasharray:6.94 6.94;}.cls-15{stroke:#ffe466;}.cls-18{fill:url(#linear-gradient-4);}.cls-19{fill:url(#linear-gradient-5);}.cls-20,.cls-21{stroke:#e052a6;}</style><clipPath id="clip-path"><rect id="_Clipping_Path_" data-name="&lt;Clipping Path&gt;" class="cls-1" width="750" height="500"/></clipPath><linearGradient id="linear-gradient" x1="-41.4" y1="492.57" x2="176.57" y2="492.57" gradientUnits="userSpaceOnUse"><stop offset="0" stop-color="#350996"/><stop offset="1" stop-color="#06042c"/></linearGradient><linearGradient id="linear-gradient-2" x1="152.11" y1="-13.4" x2="384.07" y2="-13.4" xlink:href="#linear-gradient"/><linearGradient id="linear-gradient-3" x1="362.11" y1="430.1" x2="645.07" y2="430.1" xlink:href="#linear-gradient"/><linearGradient id="linear-gradient-4" x1="685.11" y1="82.6" x2="959.07" y2="82.6" xlink:href="#linear-gradient"/><linearGradient id="linear-gradient-5" x1="-30.82" y1="178.1" x2="92" y2="178.1" xlink:href="#linear-gradient"/></defs><title>2924512</title><rect id="_Clipping_Path_2" data-name="&lt;Clipping Path&gt;" class="cls-1" width="750" height="500"/><g class="cls-2"><circle class="cls-3" cx="67.58" cy="492.57" r="108.98"/><path class="cls-4" d="M200.07,414.08a94.5,94.5,0,1,0,94.49,94.5A94.5,94.5,0,0,0,200.07,414.08Zm0,171a76.5,76.5,0,1,1,76.49-76.49A76.49,76.49,0,0,1,200.07,585.07Z"/><path class="cls-5" d="M44.39,353.54-3.86,425a47.17,47.17,0,0,0,11.62.42l41.36-61.22A47.74,47.74,0,0,0,44.39,353.54Z"/><path class="cls-5" d="M18.28,332.85-32.8,408.46a47.51,47.51,0,0,0,7.19,7l53-78.51A47.37,47.37,0,0,0,18.28,332.85Z"/><path class="cls-5" d="M-.34,330.75-41.7,392A48.16,48.16,0,0,0-37,402.59l48.25-71.42A47.09,47.09,0,0,0-.34,330.75Z"/><path class="cls-5" d="M43.06,404.65A47.28,47.28,0,0,0,51,373.47l-33.9,50.17A47.25,47.25,0,0,0,43.06,404.65Z"/><path class="cls-5" d="M33,340.7l-53,78.51a47.45,47.45,0,0,0,9.16,4.07l51.08-75.61A47.12,47.12,0,0,0,33,340.7Z"/><circle class="cls-6" cx="268.09" cy="-13.4" r="115.98"/><path class="cls-4" d="M193.41-34.59,138.9,46.1a53,53,0,0,0,13.12.48l46.73-69.17A53.38,53.38,0,0,0,193.41-34.59Z"/><path class="cls-4" d="M163.91-58,106.19,27.46a54.23,54.23,0,0,0,8.13,7.88l59.93-88.71A53,53,0,0,0,163.91-58Z"/><path class="cls-4" d="M142.87-60.35,96.13,8.82a53.67,53.67,0,0,0,5.35,12L156-59.87A54,54,0,0,0,142.87-60.35Z"/><path class="cls-4" d="M191.91,23.16a53.46,53.46,0,0,0,9-35.24l-38.3,56.69A53.46,53.46,0,0,0,191.91,23.16Z"/><path class="cls-4" d="M180.57-49.1,120.64,39.6A53,53,0,0,0,131,44.2l57.71-85.42A53.21,53.21,0,0,0,180.57-49.1Z"/><path class="cls-7" d="M562.57-111.89A94.48,94.48,0,0,0,468.08-17.4a94.49,94.49,0,0,0,94.49,94.5,94.5,94.5,0,0,0,94.5-94.5A94.49,94.49,0,0,0,562.57-111.89Zm0,171a76.49,76.49,0,0,1-76.49-76.5,76.48,76.48,0,0,1,76.49-76.49,76.49,76.49,0,0,1,76.5,76.49A76.5,76.5,0,0,1,562.57,59.1Z"/><circle class="cls-8" cx="667.29" cy="39.85" r="101.24"/><circle class="cls-9" cx="503.59" cy="430.1" r="141.48"/><path class="cls-10" d="M732.94,61.6h.1a2,2,0,0,0,0-4h-.1a2,2,0,0,0,0,4Z"/><circle class="cls-10" cx="733.04" cy="40.6" r="2"/><ellipse class="cls-10" cx="717.49" cy="40.6" rx="2.05" ry="2"/><path class="cls-10" d="M733,23.6a2,2,0,1,0-2-2A2,2,0,0,0,733,23.6Z"/><path class="cls-10" d="M717.54,23.6a2,2,0,1,0-2-2A2,2,0,0,0,717.54,23.6Z"/><path class="cls-10" d="M701.79,23.6a2,2,0,1,0-2-2A2,2,0,0,0,701.79,23.6Z"/><circle class="cls-10" cx="161" cy="225.39" r="1.93"/><circle class="cls-10" cx="161" cy="240.62" r="1.93"/><circle class="cls-10" cx="161" cy="255.61" r="1.93"/><circle class="cls-10" cx="161" cy="270.85" r="1.93"/><circle class="cls-10" cx="161" cy="285.84" r="1.93"/><circle class="cls-10" cx="161" cy="301.07" r="1.93"/><circle class="cls-10" cx="161" cy="316.07" r="1.93"/><circle class="cls-10" cx="161" cy="331.3" r="1.93"/><circle class="cls-10" cx="161" cy="346.29" r="1.93"/><circle class="cls-10" cx="161" cy="361.52" r="1.93"/><circle class="cls-10" cx="142.62" cy="225.39" r="1.93"/><circle class="cls-10" cx="142.62" cy="240.62" r="1.93"/><circle class="cls-10" cx="142.62" cy="255.61" r="1.93"/><circle class="cls-10" cx="142.62" cy="270.85" r="1.93"/><circle class="cls-10" cx="142.62" cy="285.84" r="1.93"/><circle class="cls-10" cx="142.62" cy="301.07" r="1.93"/><circle class="cls-10" cx="142.62" cy="316.07" r="1.93"/><circle class="cls-10" cx="142.62" cy="331.3" r="1.93"/><circle class="cls-10" cx="142.62" cy="346.29" r="1.93"/><circle class="cls-10" cx="142.62" cy="361.52" r="1.93"/><circle class="cls-10" cx="124.25" cy="225.39" r="1.93"/><circle class="cls-10" cx="124.25" cy="240.62" r="1.93"/><circle class="cls-10" cx="124.25" cy="255.61" r="1.93"/><circle class="cls-10" cx="124.25" cy="270.85" r="1.93"/><circle class="cls-10" cx="124.25" cy="285.84" r="1.93"/><circle class="cls-10" cx="124.25" cy="301.07" r="1.93"/><circle class="cls-10" cx="124.25" cy="316.07" r="1.93"/><circle class="cls-10" cx="124.25" cy="331.3" r="1.93"/><circle class="cls-10" cx="124.25" cy="346.29" r="1.93"/><circle class="cls-10" cx="124.25" cy="361.52" r="1.93"/><circle class="cls-10" cx="105.87" cy="225.39" r="1.93"/><circle class="cls-10" cx="105.87" cy="240.62" r="1.93"/><circle class="cls-10" cx="105.87" cy="255.61" r="1.93"/><circle class="cls-10" cx="105.87" cy="270.85" r="1.93"/><circle class="cls-10" cx="105.87" cy="285.84" r="1.93"/><circle class="cls-10" cx="105.87" cy="301.07" r="1.93"/><circle class="cls-10" cx="105.87" cy="316.07" r="1.93"/><circle class="cls-10" cx="105.87" cy="331.3" r="1.93"/><circle class="cls-10" cx="105.87" cy="346.29" r="1.93"/><circle class="cls-10" cx="105.87" cy="361.52" r="1.93"/><polygon class="cls-11" points="214.34 464.06 206.61 211.66 429.06 331.16 214.34 464.06"/><polyline class="cls-11" points="214.34 464.06 285.55 339.38 429.06 331.16"/><line class="cls-11" x1="285.55" y1="339.38" x2="206.54" y2="211.72"/><polyline class="cls-12" points="50.13 12.35 47.33 10.24 50.55 8.88"/><line class="cls-13" x1="57" y1="6.15" x2="376.13" y2="-129.05"/><line class="cls-13" x1="381.29" y1="-121.35" x2="338.8" y2="222.61"/><polyline class="cls-12" points="338.38 226.09 337.95 229.56 335.15 227.45"/><line class="cls-13" x1="329.56" y1="223.23" x2="52.92" y2="14.46"/><circle class="cls-10" cx="392.77" cy="141.69" r="1.93"/><circle class="cls-10" cx="408.01" cy="141.69" r="1.93"/><circle class="cls-10" cx="423" cy="141.69" r="1.93"/><circle class="cls-10" cx="438.23" cy="141.69" r="1.93"/><circle class="cls-10" cx="453.23" cy="141.69" r="1.93"/><circle class="cls-10" cx="468.46" cy="141.69" r="1.93"/><circle class="cls-10" cx="392.77" cy="122.69" r="1.93"/><circle class="cls-10" cx="408.01" cy="122.69" r="1.93"/><circle class="cls-10" cx="423" cy="122.69" r="1.93"/><circle class="cls-10" cx="438.23" cy="122.69" r="1.93"/><circle class="cls-10" cx="453.23" cy="122.69" r="1.93"/><circle class="cls-10" cx="468.46" cy="122.69" r="1.93"/><circle class="cls-10" cx="392.77" cy="160.07" r="1.93"/><circle class="cls-10" cx="408.01" cy="160.07" r="1.93"/><circle class="cls-10" cx="423" cy="160.07" r="1.93"/><circle class="cls-10" cx="438.23" cy="160.07" r="1.93"/><circle class="cls-10" cx="453.23" cy="160.07" r="1.93"/><circle class="cls-10" cx="468.46" cy="160.07" r="1.93"/><polygon class="cls-11" points="265.09 68.11 323.06 98.18 268.04 133.36 265.09 68.11"/><polyline class="cls-11" points="265.09 68.11 284.27 99.91 268.04 133.36"/><line class="cls-11" x1="284.27" y1="99.91" x2="323.06" y2="98.16"/><line class="cls-14" x1="71.97" y1="578.2" x2="93.89" y2="416.66"/><polyline class="cls-12" points="94.36 413.22 94.83 409.75 97.6 411.89"/><line class="cls-14" x1="103.08" y1="416.14" x2="232.02" y2="515.9"/><polygon class="cls-11" points="474.05 199.88 566.51 127.36 583.09 243.69 474.05 199.88"/><polyline class="cls-11" points="474.05 199.88 540.42 192.18 583.09 243.69"/><line class="cls-11" x1="540.42" y1="192.18" x2="566.46" y2="127.35"/><path class="cls-5" d="M510,261.34a40.48,40.48,0,1,0,40.48,40.47A40.48,40.48,0,0,0,510,261.34Zm0,73.24a32.77,32.77,0,1,1,32.77-32.77A32.77,32.77,0,0,1,510,334.58Z"/><rect class="cls-7" x="20.57" y="457.25" width="7.58" height="51.75"/><rect class="cls-7" x="20.57" y="457.25" width="7.58" height="51.75"/><rect class="cls-7" x="35.32" y="457.25" width="7.58" height="51.75"/><rect class="cls-7" x="50.07" y="457.25" width="7.58" height="51.75"/><path class="cls-15" d="M374.94,267.79A45.65,45.65,0,0,1,456.88,243c.34.45.67.91,1,1.36"/><line class="cls-16" x1="-76.43" y1="141.54" x2="86.04" y2="128.12"/><polyline class="cls-17" points="89.5 127.84 92.99 127.55 91.49 130.72"/><line class="cls-16" x1="88.53" y1="136.99" x2="18.92" y2="284.4"/><polyline class="cls-17" points="17.43 287.54 15.94 290.7 13.95 287.82"/><line class="cls-16" x1="9.99" y1="282.12" x2="-82.86" y2="148.13"/><circle class="cls-10" cx="37" cy="54" r="2"/><ellipse class="cls-10" cx="21.45" cy="54" rx="2.05" ry="2"/><path class="cls-10" d="M37,37a2,2,0,1,0-2-2A2,2,0,0,0,37,37Z"/><path class="cls-10" d="M21.5,37a2,2,0,1,0-2-2A2,2,0,0,0,21.5,37Z"/><circle class="cls-5" cx="147.33" cy="163.33" r="8"/><polygon class="cls-5" points="397 42 401.3 -21.92 448.45 21.45 397 42"/><circle class="cls-10" cx="656.38" cy="189.83" r="1.93"/><circle class="cls-10" cx="656.38" cy="205.07" r="1.93"/><circle class="cls-10" cx="656.38" cy="220.06" r="1.93"/><circle class="cls-10" cx="656.38" cy="235.29" r="1.93"/><circle class="cls-10" cx="638" cy="189.83" r="1.93"/><circle class="cls-10" cx="638" cy="205.07" r="1.93"/><circle class="cls-10" cx="638" cy="220.06" r="1.93"/><circle class="cls-10" cx="638" cy="235.29" r="1.93"/><polygon class="cls-10" points="502.43 398.95 491.74 389.01 505.69 384.72 502.43 398.95"/><polygon class="cls-7" points="609.21 288.4 620.86 279.61 622.65 294.09 609.21 288.4"/><path class="cls-5" d="M553,395.35a132.72,132.72,0,0,0-22.22,87.53l95.14-140.82A132.76,132.76,0,0,0,553,395.35Z"/><path class="cls-5" d="M777.67,401.15,642.24,601.61a199.06,199.06,0,0,0,40.64,6.62L799,436.39A198.21,198.21,0,0,0,777.67,401.15Z"/><path class="cls-5" d="M704.38,343.07,561,555.29a133.31,133.31,0,0,0,20.19,19.57L730.07,354.49A133.16,133.16,0,0,0,704.38,343.07Z"/><path class="cls-5" d="M652.1,337.16,536,509a133.19,133.19,0,0,0,13.27,29.8L684.71,338.35A132.58,132.58,0,0,0,652.1,337.16Z"/><path class="cls-5" d="M773.94,544.61a132.75,132.75,0,0,0,22.22-87.54L701,597.89A132.74,132.74,0,0,0,773.94,544.61Z"/><path class="cls-5" d="M745.76,365.1,596.88,585.46a132.6,132.6,0,0,0,25.69,11.43L766,384.67A132.36,132.36,0,0,0,745.76,365.1Z"/><path class="cls-4" d="M738.57,263.11a94.5,94.5,0,1,0,94.5,94.49A94.48,94.48,0,0,0,738.57,263.11Zm0,171a76.5,76.5,0,1,1,76.5-76.5A76.49,76.49,0,0,1,738.57,434.1Z"/><path class="cls-7" d="M281-88.36a68,68,0,0,0-68,68,68,68,0,0,0,68,68,68,68,0,0,0,68-68A68,68,0,0,0,281-88.36Zm0,123a55,55,0,0,1-55-55,55,55,0,0,1,55-55,55,55,0,0,1,55,55A55,55,0,0,1,281,34.62Z"/><circle class="cls-18" cx="822.09" cy="82.6" r="136.98"/><circle class="cls-19" cx="30.59" cy="178.1" r="61.41"/><rect class="cls-7" x="702" y="217.09" width="62.14" height="7.58"/><rect class="cls-7" x="702" y="217.09" width="62.14" height="7.58"/><rect class="cls-7" x="702" y="202.34" width="62.14" height="7.58"/><rect class="cls-7" x="702" y="187.59" width="62.14" height="7.58"/><path class="cls-7" d="M44.8,90.57A27.43,27.43,0,1,0,72.22,118,27.43,27.43,0,0,0,44.8,90.57Zm0,49.63A22.2,22.2,0,1,1,67,118,22.2,22.2,0,0,1,44.8,140.2Z"/><circle class="cls-4" cx="443" cy="80" r="8"/><polygon class="cls-10" points="48.17 315.61 56.91 303.92 62.67 317.33 48.17 315.61"/><polygon class="cls-4" points="649.67 67.03 695.28 70.23 669.7 108.14 649.67 67.03"/><polygon class="cls-7" points="433.64 523.81 418.32 461.6 476.42 488.6 433.64 523.81"/><circle class="cls-5" cx="335" cy="434" r="8"/><line class="cls-20" x1="355.85" y1="528.23" x2="437.21" y2="386.96"/><polyline class="cls-21" points="438.94 383.96 440.69 380.92 442.44 383.95"/><line class="cls-20" x1="445.91" y1="389.96" x2="527.58" y2="531.05"/></g></svg>