<svg id="Layer_1" data-name="Layer 1" xmlns="http://www.w3.org/2000/svg" viewBox="0 0 1080 1080"><defs><style>.cls-1{fill:#d1d3d4;}.cls-2{fill:#a7a9ac;}.cls-3{fill:#332929;}.cls-4{fill:#fff;}</style></defs><title>Logo_FIX</title><polygon class="cls-1" points="799.17 73.25 540 285.77 280.83 73.25 143.47 697.84 540 1006.25 936.52 697.84 799.17 73.25"/><path class="cls-2" d="M280.83,73.25s195.91,356-78.28,356C203.08,428.31,280.83,73.25,280.83,73.25Z"/><path class="cls-2" d="M799.17,73.25s-195.91,356,78.28,356C876.92,428.31,799.17,73.25,799.17,73.25Z"/><path class="cls-3" d="M540,651.19c-106.26-5.18-137.36,57-137.36,57L540,786l137.36-77.75S646.26,646,540,651.19Z"/><path class="cls-4" d="M540,786c-191.78-295.45-308.41-114-308.41-114L540,905.18,848.41,671.93S731.78,490.51,540,786Z"/></svg>